<svg version="1.1" id="Layer_1" xmlns="http://www.w3.org/2000/svg" xmlns:xlink="http://www.w3.org/1999/xlink" x="0px" y="0px"
	 width="100%" viewBox="0 0 485 488" enable-background="new 0 0 485 488" xml:space="preserve">
<path fill="transparent" opacity="1.000000" stroke="none" 
	d="
M236.000000,489.000000 
	C157.333359,489.000000 79.166702,489.000000 1.000042,489.000000 
	C1.000028,326.333405 1.000028,163.666779 1.000014,1.000129 
	C162.666580,1.000086 324.333160,1.000086 485.999817,1.000043 
	C485.999878,163.666534 485.999878,326.333069 485.999939,488.999817 
	C402.833344,489.000000 319.666656,489.000000 236.000000,489.000000 
M349.759216,326.935486 
	C349.848724,326.107208 350.016113,325.278961 350.016541,324.450653 
	C350.048645,261.975037 350.210510,199.498505 349.814423,137.025528 
	C349.782959,132.061478 346.925629,126.218559 343.577515,122.342384 
	C333.970581,111.220421 318.669128,111.853653 307.411865,123.062080 
	C284.389679,145.984360 261.383148,168.922592 238.449600,191.933426 
	C232.488281,197.914841 226.820267,204.188583 221.156708,210.180817 
	C204.216431,197.273407 188.578064,196.251511 180.609283,205.402939 
	C225.811111,250.848038 270.930298,296.210052 315.710449,341.231201 
	C315.710449,282.165436 315.710449,222.422318 315.710449,161.190613 
	C291.072418,185.841080 267.438141,209.487259 244.132660,232.804504 
	C241.808868,230.837265 239.594772,228.962906 237.380676,227.088531 
	C237.928513,227.369858 238.476349,227.651184 239.024200,227.932510 
	C267.787628,198.983383 296.551056,170.034256 325.726501,140.670456 
	C325.726501,211.886642 325.726501,283.132477 325.726501,354.936005 
	C339.226624,349.818665 346.804596,340.884949 349.759216,326.935486 
M293.236786,355.182739 
	C300.350769,356.026520 307.464752,356.870270 314.828583,357.743683 
	C266.748932,309.522797 219.471573,262.106567 172.273285,214.769669 
	C165.323318,226.447144 166.837250,239.453156 177.628616,250.345718 
	C207.765869,280.765686 238.109756,310.981628 268.481750,341.167786 
	C275.187988,347.832977 283.099426,352.729004 293.236786,355.182739 
M175.390930,301.890869 
	C147.562515,329.752136 119.734093,357.613403 91.841042,385.539398 
	C103.872200,394.768524 119.358513,393.394501 130.406296,382.407288 
	C157.214691,355.745941 183.951996,329.013092 210.704178,302.295319 
	C211.586609,301.414001 212.319809,300.383301 212.852554,299.745514 
	C206.774216,293.787506 200.986191,288.114044 194.944885,282.192322 
	C188.783127,288.400787 182.336990,294.895782 175.390930,301.890869 
M91.766953,338.269440 
	C86.430908,343.213623 81.890335,348.675812 80.435097,356.076782 
	C78.836472,364.206970 80.169731,371.686951 84.925941,378.687256 
	C119.733276,343.763367 154.019806,309.362030 187.929855,275.338440 
	C182.770096,270.093506 177.337906,264.571655 171.124268,258.255463 
	C144.970291,284.627350 118.619255,311.197968 91.766953,338.269440 
z"/>
<path fill="#5ce0e6" opacity="1.000000" stroke="none" 
	d="
M349.671753,327.366791 
	C346.804596,340.884949 339.226624,349.818665 325.726501,354.936005 
	C325.726501,283.132477 325.726501,211.886642 325.726501,140.670456 
	C296.551056,170.034256 267.787628,198.983383 239.024200,227.932510 
	C238.476349,227.651184 237.928513,227.369858 237.380676,227.088531 
	C239.594772,228.962906 241.808868,230.837265 244.132660,232.804504 
	C267.438141,209.487259 291.072418,185.841080 315.710449,161.190613 
	C315.710449,222.422318 315.710449,282.165436 315.710449,341.231201 
	C270.930298,296.210052 225.811111,250.848038 180.609283,205.402939 
	C188.578064,196.251511 204.216431,197.273407 221.156708,210.180817 
	C226.820267,204.188583 232.488281,197.914841 238.449600,191.933426 
	C261.383148,168.922592 284.389679,145.984360 307.411865,123.062080 
	C318.669128,111.853653 333.970581,111.220421 343.577515,122.342384 
	C346.925629,126.218559 349.782959,132.061478 349.814423,137.025528 
	C350.210510,199.498505 350.048645,261.975037 350.016541,324.450653 
	C350.016113,325.278961 349.848724,326.107208 349.671753,327.366791 
M282.299438,272.199951 
	C285.063568,274.939545 287.827698,277.679138 291.331665,281.152008 
	C291.331665,261.030396 291.331665,242.172668 291.331665,223.901779 
	C281.935730,233.271118 272.378998,242.800797 262.630646,252.521576 
	C268.636200,258.530304 275.217621,265.115234 282.299438,272.199951 
z"/>
<path fill="#5ce0e6" opacity="1.000000" stroke="none" 
	d="
M292.844299,355.069122 
	C283.099426,352.729004 275.187988,347.832977 268.481750,341.167786 
	C238.109756,310.981628 207.765869,280.765686 177.628616,250.345718 
	C166.837250,239.453156 165.323318,226.447144 172.273285,214.769669 
	C219.471573,262.106567 266.748932,309.522797 314.828583,357.743683 
	C307.464752,356.870270 300.350769,356.026520 292.844299,355.069122 
z"/>
<path fill="#5ce0e6" opacity="1.000000" stroke="none" 
	d="
M175.640900,301.640808 
	C182.336990,294.895782 188.783127,288.400787 194.944885,282.192322 
	C200.986191,288.114044 206.774216,293.787506 212.852554,299.745514 
	C212.319809,300.383301 211.586609,301.414001 210.704178,302.295319 
	C183.951996,329.013092 157.214691,355.745941 130.406296,382.407288 
	C119.358513,393.394501 103.872200,394.768524 91.841042,385.539398 
	C119.734093,357.613403 147.562515,329.752136 175.640900,301.640808 
z"/>
<path fill="#5ce0e6" opacity="1.000000" stroke="none" 
	d="
M92.017586,338.018982 
	C118.619255,311.197968 144.970291,284.627350 171.124268,258.255463 
	C177.337906,264.571655 182.770096,270.093506 187.929855,275.338440 
	C154.019806,309.362030 119.733276,343.763367 84.925941,378.687256 
	C80.169731,371.686951 78.836472,364.206970 80.435097,356.076782 
	C81.890335,348.675812 86.430908,343.213623 92.017586,338.018982 
z"/>
<path fill="#ffffff00" opacity="1.000000" stroke="none" 
	d="
M282.049255,271.950073 
	C275.217621,265.115234 268.636200,258.530304 262.630646,252.521576 
	C272.378998,242.800797 281.935730,233.271118 291.331665,223.901779 
	C291.331665,242.172668 291.331665,261.030396 291.331665,281.152008 
	C287.827698,277.679138 285.063568,274.939545 282.049255,271.950073 
z"/>
</svg>